<svg width="180" height="180" viewBox="0 0 180 180" fill="none" xmlns="http://www.w3.org/2000/svg">
<path d="M54.783 180V136.957C54.783 135.919 54.3707 134.924 53.6369 134.19C52.9031 133.456 51.9078 133.044 50.87 133.044H19.565C18.5272 133.044 17.5319 133.456 16.7981 134.19C16.0643 134.924 15.652 135.919 15.652 136.957V180H23.478V140.87H46.956V180H54.783Z" fill="#F1BA60"/>
<path d="M109.565 180V105.652C109.565 104.614 109.153 103.619 108.419 102.885C107.685 102.151 106.69 101.739 105.652 101.739H74.348C73.3102 101.739 72.3149 102.151 71.5811 102.885C70.8473 103.619 70.435 104.614 70.435 105.652V180H78.261V109.565H101.739V180H109.565Z" fill="#F1BA60"/>
<path d="M116.077 32.087L123.12 48.522L130.163 45.392L117.641 16.435L88.686 28.956L91.816 35.999L108.251 28.956C98.86 50.086 86.338 67.304 69.903 81.391C58.946 90.782 46.425 97.826 34.686 103.304L22.947 108C20.599 108.783 19.817 108.783 19.034 109.565L15.121 110.348L16.686 118.174L20.599 117.391C21.382 117.391 22.947 116.608 25.295 115.826C29.208 114.261 33.121 113.478 37.817 111.13C50.339 105.652 63.643 97.826 75.382 87.652C92.599 72.783 105.903 54.783 116.077 32.087V32.087Z" fill="#F1BA60"/>
<path d="M164.348 180V66.522C164.348 65.4842 163.936 64.4889 163.202 63.7551C162.468 63.0213 161.473 62.609 160.435 62.609H129.13C128.092 62.609 127.097 63.0213 126.363 63.7551C125.629 64.4889 125.217 65.4842 125.217 66.522V180H133.043V70.435H156.521V180H164.348V180Z" fill="#F1BA60"/>
<path d="M180 172.174V180H0V172.174H180Z" fill="#F1BA60"/>
<path d="M46.957 55.565C50.87 54.782 54.783 52.435 56.348 48.522C60.261 39.913 56.348 34.435 47.739 29.739C46.956 28.956 46.956 29.739 43.826 28.174C40.696 26.609 40.696 26.609 39.913 25.826C35.217 23.478 33.652 21.13 35.217 18C37.565 14.087 46.174 14.087 49.304 16.435L52.434 18.783L57.13 12.522L54 9.391L46.957 7.043V0H39.13V7.043C34.434 7.826 30.521 10.173 28.173 14.869C24.26 23.478 28.173 28.956 36.782 33.652C38.347 34.435 37.565 34.435 40.695 36C43.825 37.565 43.825 37.565 44.608 37.565C50.086 39.913 50.869 42.261 49.304 45.391C47.739 49.304 38.347 49.304 35.217 46.956L32.087 44.608L27.391 50.869L30.521 53.217C32.869 54.782 35.999 55.565 39.13 56.347V62.608H46.956V55.565H46.957Z" fill="#F1BA60"/>
</svg>
