<svg width="128" height="182" viewBox="0 0 128 182" fill="none" xmlns="http://www.w3.org/2000/svg">
<g clip-path="url(#clip0_3_2)">
<path d="M126.545 7.436C126.545 5.60601 125.818 3.85097 124.524 2.55697C123.23 1.26296 121.475 0.536003 119.645 0.536003H7.436C5.606 0.536003 3.85096 1.26296 2.55696 2.55697C1.26296 3.85097 0.535995 5.60601 0.535995 7.436V15.02H126.545V7.436V7.436Z" fill="#D81E29"/>
<path d="M119.646 0H7.436C3.336 0 0 3.336 0 7.436V173.776C0 177.876 3.336 181.212 7.436 181.212H119.646C123.746 181.212 127.082 177.876 127.082 173.776V7.436C127.082 3.336 123.746 0 119.646 0V0ZM126.009 173.776C126.007 175.463 125.336 177.08 124.143 178.273C122.95 179.466 121.333 180.137 119.646 180.139H7.436C5.749 180.137 4.13162 179.466 2.93872 178.273C1.74583 177.08 1.07485 175.463 1.073 173.776V15.557H126.009V173.776V173.776ZM1.073 14.484V7.436C1.07485 5.749 1.74583 4.13162 2.93872 2.93873C4.13162 1.74583 5.749 1.07485 7.436 1.073H119.646C121.333 1.07485 122.95 1.74583 124.143 2.93873C125.336 4.13162 126.007 5.749 126.009 7.436V14.484H1.073Z" fill="black"/>
<path d="M11.274 8.273C11.274 8.74031 11.0884 9.18848 10.7579 9.51892C10.4275 9.84936 9.97931 10.035 9.512 10.035C9.04469 10.035 8.59652 9.84936 8.26608 9.51892C7.93564 9.18848 7.75 8.74031 7.75 8.273C7.75 7.80569 7.93564 7.35752 8.26608 7.02708C8.59652 6.69664 9.04469 6.511 9.512 6.511C9.97931 6.511 10.4275 6.69664 10.7579 7.02708C11.0884 7.35752 11.274 7.80569 11.274 8.273V8.273Z" fill="#1F1F1E"/>
<path d="M18.542 8.494C18.542 8.96131 18.3564 9.40949 18.0259 9.73993C17.6955 10.0704 17.2473 10.256 16.78 10.256C16.3127 10.256 15.8645 10.0704 15.5341 9.73993C15.2036 9.40949 15.018 8.96131 15.018 8.494C15.018 8.02669 15.2036 7.57852 15.5341 7.24808C15.8645 6.91764 16.3127 6.732 16.78 6.732C17.2473 6.732 17.6955 6.91764 18.0259 7.24808C18.3564 7.57852 18.542 8.02669 18.542 8.494V8.494Z" fill="#1F1F1E"/>
<path d="M25.81 8.714C25.81 9.18131 25.6244 9.62949 25.2939 9.95992C24.9635 10.2904 24.5153 10.476 24.048 10.476C23.5807 10.476 23.1325 10.2904 22.8021 9.95992C22.4716 9.62949 22.286 9.18131 22.286 8.714C22.286 8.24669 22.4716 7.79852 22.8021 7.46808C23.1325 7.13764 23.5807 6.952 24.048 6.952C24.5153 6.952 24.9635 7.13764 25.2939 7.46808C25.6244 7.79852 25.81 8.24669 25.81 8.714V8.714Z" fill="#1F1F1E"/>
</g>
<defs>
<clipPath id="clip0_3_2">
<rect width="127.082" height="181.212" fill="white"/>
</clipPath>
</defs>
</svg>
