<svg width="28" height="26" viewBox="0 0 28 26" fill="none" xmlns="http://www.w3.org/2000/svg">
<path fill-rule="evenodd" clip-rule="evenodd" d="M8.67662 1.15299C10.04 1.09458 10.4747 1.0816 13.9477 1.0816C17.4207 1.0816 17.8554 1.09566 19.2176 1.15299C20.5798 1.21031 21.5097 1.41257 22.3233 1.70568C23.1753 2.00529 23.9482 2.47362 24.5875 3.07931C25.2384 3.6731 25.7405 4.39128 26.0613 5.18517C26.3774 5.94229 26.5936 6.80756 26.6564 8.07303C26.7192 9.3439 26.7331 9.74842 26.7331 12.9791C26.7331 16.2109 26.718 16.6155 26.6564 17.8842C26.5948 19.1496 26.3774 20.0149 26.0613 20.772C25.7405 21.566 25.2375 22.2854 24.5875 22.88C23.9482 23.4857 23.1753 23.953 22.3233 24.2515C21.5097 24.5457 20.5798 24.7469 19.2199 24.8053C17.8554 24.8637 17.4207 24.8767 13.9477 24.8767C10.4747 24.8767 10.04 24.8626 8.67662 24.8053C7.31672 24.748 6.38687 24.5457 5.57326 24.2515C4.72003 23.953 3.94698 23.4849 3.30792 22.88C2.65746 22.2859 2.15411 21.5669 1.83295 20.7731C1.51796 20.016 1.30177 19.1507 1.239 17.8852C1.17624 16.6144 1.16229 16.2099 1.16229 12.9791C1.16229 9.74734 1.1774 9.34282 1.239 8.07519C1.30061 6.80756 1.51796 5.94229 1.83295 5.18517C2.15458 4.39137 2.65832 3.67236 3.30908 3.07823C3.94723 2.47308 4.71951 2.00468 5.57209 1.70568C6.38571 1.41257 7.31556 1.2114 8.67546 1.15299H8.67662ZM19.1142 3.29455C17.7659 3.23722 17.3614 3.22532 13.9477 3.22532C10.534 3.22532 10.1295 3.23722 8.78123 3.29455C7.53407 3.34754 6.85761 3.54115 6.40663 3.70447C5.81037 3.92079 5.3838 4.17713 4.93631 4.59354C4.51212 4.97756 4.18567 5.44506 3.98089 5.96176C3.80538 6.38141 3.59733 7.0109 3.54038 8.17145C3.47878 9.4261 3.46599 9.8025 3.46599 12.9791C3.46599 16.1558 3.47878 16.5322 3.54038 17.7868C3.59733 18.9474 3.80538 19.5769 3.98089 19.9965C4.18546 20.5124 4.51207 20.9808 4.93631 21.3647C5.34893 21.7595 5.85221 22.0634 6.40663 22.2538C6.85761 22.4171 7.53407 22.6107 8.78123 22.6637C10.1295 22.7211 10.5328 22.733 13.9477 22.733C17.3626 22.733 17.7659 22.7211 19.1142 22.6637C20.3613 22.6107 21.0378 22.4171 21.4888 22.2538C22.085 22.0375 22.5116 21.7812 22.9591 21.3647C23.3833 20.9808 23.7099 20.5124 23.9145 19.9965C24.09 19.5769 24.2981 18.9474 24.355 17.7868C24.4166 16.5322 24.4294 16.1558 24.4294 12.9791C24.4294 9.8025 24.4166 9.4261 24.355 8.17145C24.2981 7.0109 24.09 6.38141 23.9145 5.96176C23.682 5.4069 23.4066 5.00995 22.9591 4.59354C22.5464 4.19884 22.044 3.89506 21.4888 3.70447C21.0378 3.54115 20.3613 3.34754 19.1142 3.29455V3.29455ZM12.3147 16.6468C13.2267 17.0001 14.2422 17.0478 15.1878 16.7817C16.1334 16.5157 16.9504 15.9523 17.4993 15.188C18.0481 14.4237 18.2948 13.5057 18.1972 12.591C18.0995 11.6762 17.6636 10.8213 16.9639 10.1724C16.5178 9.75758 15.9785 9.43996 15.3847 9.24239C14.7909 9.04482 14.1574 8.97222 13.5298 9.02982C12.9023 9.08742 12.2962 9.27379 11.7554 9.5755C11.2145 9.87722 10.7522 10.2868 10.4018 10.7747C10.0515 11.2626 9.82172 11.8167 9.72911 12.3972C9.63651 12.9777 9.68336 13.57 9.86629 14.1316C10.0492 14.6932 10.3637 15.21 10.7871 15.645C11.2104 16.0799 11.7321 16.4221 12.3147 16.6468ZM9.30078 8.65492C9.91102 8.08706 10.6355 7.63661 11.4328 7.32928C12.2301 7.02196 13.0847 6.86378 13.9477 6.86378C14.8107 6.86378 15.6653 7.02196 16.4626 7.32928C17.2599 7.63661 17.9844 8.08706 18.5946 8.65492C19.2049 9.22279 19.6889 9.89694 20.0192 10.6389C20.3494 11.3808 20.5194 12.1761 20.5194 12.9791C20.5194 13.7822 20.3494 14.5774 20.0192 15.3194C19.6889 16.0613 19.2049 16.7355 18.5946 17.3034C17.3622 18.4502 15.6906 19.0945 13.9477 19.0945C12.2048 19.0945 10.5332 18.4502 9.30078 17.3034C8.06834 16.1565 7.37597 14.601 7.37597 12.9791C7.37597 11.3572 8.06834 9.80178 9.30078 8.65492V8.65492ZM21.9769 7.77451C22.1282 7.64176 22.2492 7.48213 22.3329 7.30507C22.4167 7.128 22.4614 6.9371 22.4644 6.74367C22.4675 6.55024 22.4287 6.35821 22.3506 6.17895C22.2724 5.99969 22.1564 5.83684 22.0094 5.70005C21.8624 5.56326 21.6874 5.45531 21.4948 5.38258C21.3022 5.30986 21.0958 5.27384 20.8879 5.27666C20.6801 5.27948 20.4749 5.32108 20.2846 5.399C20.0944 5.47692 19.9228 5.58957 19.7802 5.73029C19.5027 6.00397 19.3508 6.36749 19.3567 6.74367C19.3626 7.11986 19.5258 7.4791 19.8117 7.74513C20.0976 8.01117 20.4837 8.16305 20.8879 8.16853C21.2922 8.17402 21.6828 8.03267 21.9769 7.77451V7.77451Z" fill="#F2F2F2"/>
</svg>
