<svg width="162" height="98" viewBox="0 0 162 98" fill="none" xmlns="http://www.w3.org/2000/svg">
<path d="M67.3247 2.38001C58.6286 6.16001 55.4026 7.84001 55.4026 8.54001C55.4026 9.52001 51.826 12.53 49.2312 13.72C46.987 14.7 39.9741 21.14 39.9741 22.26C39.9741 22.54 38.9922 24.36 37.8 26.25C36.3974 28.42 35.4857 30.87 35.4156 32.69C35.2754 34.3 34.9948 35.98 34.7143 36.33C33.8728 37.8 32.2598 48.79 32.2598 53.48C32.2598 61.6 35.6961 71.68 40.2546 77.07C41.4468 78.47 43.4805 80.99 44.813 82.6C47.5481 85.96 52.3169 89.6 53.9299 89.6C54.9117 89.53 54.8416 89.46 53.7896 88.83C53.1585 88.41 52.7377 87.78 53.0182 87.43C53.5792 86.45 51.265 84 49.7922 84C48.6 84 45.7948 81.34 43.9013 78.26C42.9896 76.86 42.9195 76.37 43.6208 76.09C44.3221 75.88 44.252 75.53 43.3403 74.48C41.5169 72.45 39.413 66.99 38.9922 63.21L38.5715 59.85L40.5351 64.75C43.5507 72.17 44.6728 74.06 49.1611 79.24C51.4753 81.9 53.2987 84.35 53.2987 84.63C53.2987 86.59 68.2364 92.82 75.5299 93.94C82.613 94.99 88.2935 93.87 96.3585 89.81C99.865 88.06 103.512 86.1 104.494 85.4C105.475 84.7 107.579 83.79 109.122 83.3C113.821 81.9 115.644 80.01 117.117 74.9C117.888 72.38 119.571 67.2 120.904 63.35C122.587 58.59 123.358 55.02 123.358 52.29C123.429 50.12 123.779 47.67 124.27 46.97C125.042 45.71 125.182 45.78 126.935 47.74C128.548 49.49 128.899 49.63 129.32 48.65C130.652 45.22 128.408 30.31 125.813 24.71C124.481 21.91 119.431 16.1 118.309 16.1C117.818 16.03 115.434 14.14 112.909 11.76C108.771 7.91001 98.8831 2.10001 96.4286 2.10001C95.9377 2.10001 95.1663 1.68001 94.7455 1.12001C94.1143 0.350014 91.5896 0.140015 83.2442 0.140015C72.7247 0.140015 72.5143 0.140015 67.3247 2.38001ZM89.7663 12.67C93.0624 13.16 95.5169 14.14 98.6026 16.17C103.932 19.6 112.348 27.93 114.803 32.06C116.486 34.86 116.556 35.49 115.855 38.08C115.434 39.69 115.364 42 115.644 43.4C116.065 45.36 116.486 45.85 117.748 45.78C119.361 45.71 119.361 45.78 119.081 52.78C118.87 59.22 118.59 60.34 116.205 65.38C114.101 69.79 112.348 72.1 107.439 77C104.003 80.36 99.9351 83.79 98.4624 84.56C91.8 87.92 79.387 88.48 70.0598 85.75C55.7533 81.62 51.826 78.33 46.9169 66.01C43.7611 58.24 42.7792 54.18 42.7792 48.93C42.7792 35.91 51.7559 21.91 63.3273 16.8C65.9922 15.61 72.7247 13.93 80.2987 12.6C84.4364 11.83 84.787 11.83 89.7663 12.67ZM40.3247 29.89C39.6935 31.29 38.9221 32.9 38.4312 33.39C38.0104 33.88 37.8702 34.51 38.0805 34.72C38.2909 34.93 38.0805 36.26 37.5896 37.66C35.4156 43.96 35.7663 61.6 38.2909 68.04C38.7818 69.51 38.9922 70.7 38.7117 70.7C38.3611 70.7 37.239 68.11 36.1169 64.96C32.4 54.32 32.9611 43.47 37.8702 33.04C40.6052 27.3 42.3585 24.99 40.3247 29.89Z" fill="#F2F2F2"/>
<path d="M52.5974 43.4C52.5974 44.8 52.9481 45.5 53.6494 45.5C54.2104 45.5 54.7013 45.01 54.7013 44.45C54.7013 43.75 55.4026 43.4 56.8052 43.4H58.9091V50.05C58.9091 55.51 58.6987 56.7 57.8572 56.7C57.2961 56.7 56.8052 57.19 56.8052 57.75C56.8052 58.52 57.5766 58.8 59.6104 58.8C61.6442 58.8 62.4156 58.52 62.4156 57.75C62.4156 57.19 62.1351 56.7 61.7143 56.7C61.2935 56.7 61.013 54.04 61.013 50.05V43.4H63.1169C64.5195 43.4 65.2208 43.75 65.2208 44.45C65.2208 45.01 65.7117 45.5 66.2727 45.5C66.974 45.5 67.3247 44.8 67.3247 43.4V41.3H59.961H52.5974V43.4Z" fill="#F2F2F2"/>
<path d="M70.4805 43.61C68.2364 45.85 68.026 46.41 68.026 50.05C68.026 53.62 68.2364 54.25 70.4104 56.42C72.4442 58.45 73.2857 58.8 75.9507 58.8C79.7377 58.8 81.3507 58.24 81.3507 57.05C81.3507 56.35 80.439 56.21 77.6338 56.49C74.0572 56.84 73.8468 56.77 71.6728 54.32C69.1481 51.45 68.9377 49.91 70.5507 46.83C72.3039 43.4 79.2468 41.58 79.2468 44.52C79.2468 45.08 79.7377 45.5 80.3689 45.5C81.1403 45.5 81.3507 44.94 81.2104 43.54C81 41.72 80.7896 41.65 76.9325 41.44C73.0754 41.23 72.7247 41.37 70.4805 43.61Z" fill="#F2F2F2"/>
<path d="M82.052 43.4C82.052 43.96 82.5429 44.45 83.1039 44.45C83.9455 44.45 84.1559 45.64 84.1559 51.1C84.1559 56.56 83.9455 57.75 83.1039 57.75C82.5429 57.75 82.052 58.24 82.052 58.8C82.052 59.57 82.8234 59.85 84.8572 59.85C86.8909 59.85 87.6624 59.57 87.6624 58.8C87.6624 58.24 87.1715 57.75 86.6104 57.75C85.839 57.75 85.5585 56.98 85.5585 54.95C85.5585 52.22 85.6286 52.15 87.8728 52.15C91.4494 52.15 93.2728 50.47 93.2728 47.25C93.2728 43.61 91.4494 42.35 86.1195 42.35C82.9637 42.35 82.052 42.56 82.052 43.4Z" fill="#F2F2F2"/>
<path d="M93.9741 42.35C93.9741 42.91 94.465 43.4 95.026 43.4C95.8676 43.4 96.078 44.59 96.078 49.7C96.078 57.4 96.9896 58.8 102.039 58.8C107.088 58.8 108 57.4 108 49.7C108 44.59 108.21 43.4 109.052 43.4C109.613 43.4 110.104 42.91 110.104 42.35C110.104 41.58 109.333 41.3 107.299 41.3C105.265 41.3 104.494 41.58 104.494 42.35C104.494 42.91 104.844 43.4 105.195 43.4C106.247 43.4 106.107 54.81 105.055 55.86C104.564 56.35 103.161 56.7 101.899 56.7C98.8832 56.7 98.1819 55.23 98.1819 48.79C98.1819 44.8 98.4624 43.47 99.2338 43.12C101.338 42.35 100.216 41.3 97.1299 41.3C94.8156 41.3 93.9741 41.58 93.9741 42.35Z" fill="#F2F2F2"/>
</svg>
