<svg width="28" height="25" viewBox="0 0 28 25" fill="none" xmlns="http://www.w3.org/2000/svg">
<g clip-path="url(#clip0_20_416)">
<path d="M27.0673 5.32101C26.143 5.70215 25.1501 5.95967 24.1062 6.07607C25.1833 5.47634 25.9891 4.53245 26.3733 3.4205C25.3613 3.97983 24.2538 4.37353 23.0989 4.5845C22.3222 3.81282 21.2935 3.30134 20.1724 3.12947C19.0514 2.9576 17.9007 3.13495 16.8991 3.63399C15.8974 4.13303 15.1008 4.92583 14.633 5.88932C14.1652 6.8528 14.0523 7.93306 14.3118 8.96238C12.2614 8.86658 10.2555 8.37065 8.42437 7.50677C6.59323 6.64289 4.97775 5.43037 3.68278 3.9479C3.24 4.65867 2.9854 5.48274 2.9854 6.36038C2.9849 7.15045 3.19399 7.92842 3.59409 8.62527C3.9942 9.32211 4.57296 9.91629 5.27902 10.3551C4.46018 10.3308 3.6594 10.1249 2.94333 9.75452V9.81633C2.94325 10.9244 3.35516 11.9984 4.10917 12.8561C4.86317 13.7138 5.91284 14.3023 7.08005 14.5218C6.32043 14.7131 5.52403 14.7413 4.751 14.6042C5.08032 15.5577 5.7218 16.3914 6.58564 16.9888C7.44949 17.5861 8.49244 17.9171 9.5685 17.9355C7.74183 19.2699 5.4859 19.9937 3.16362 19.9905C2.75225 19.9906 2.34123 19.9683 1.93268 19.9236C4.28993 21.3339 7.03393 22.0825 9.83638 22.0795C19.323 22.0795 24.5092 14.768 24.5092 8.42674C24.5092 8.22072 24.5036 8.01264 24.4937 7.80662C25.5024 7.12777 26.3732 6.28713 27.0651 5.3241L27.0673 5.32101V5.32101Z" fill="#F2F2F2"/>
</g>
<defs>
<clipPath id="clip0_20_416">
<rect width="26.5671" height="24.7222" fill="white" transform="translate(0.895447 0.235474)"/>
</clipPath>
</defs>
</svg>
