<svg width="28" height="26" viewBox="0 0 28 26" fill="none" xmlns="http://www.w3.org/2000/svg">
<path fill-rule="evenodd" clip-rule="evenodd" d="M19.833 15.4324C19.5016 15.2789 17.8765 14.5393 17.574 14.4363C17.2714 14.3343 17.0512 14.2838 16.8299 14.5908C16.6096 14.8957 15.9767 15.5859 15.7843 15.7898C15.5908 15.9948 15.3983 16.0195 15.068 15.8671C14.7376 15.7126 13.6721 15.3902 12.4096 14.3477C11.4275 13.536 10.7634 12.5337 10.571 12.2268C10.3786 11.9208 10.5499 11.755 10.7156 11.6025C10.8647 11.4655 11.046 11.2451 11.2117 11.0669C11.3774 10.8876 11.4319 10.7599 11.542 10.5549C11.6533 10.351 11.5977 10.1728 11.5142 10.0193C11.4319 9.86579 10.7712 8.35877 10.4954 7.74587C10.2273 7.14945 9.9548 7.23082 9.75236 7.22052C9.55882 7.21228 9.33859 7.21022 9.11836 7.21022C8.89812 7.21022 8.53997 7.28645 8.23742 7.59341C7.93377 7.89935 7.08064 8.63998 7.08064 10.147C7.08064 11.653 8.26412 13.1085 8.42985 13.3135C8.59558 13.5175 10.7601 16.6098 14.0758 17.9355C14.8656 18.2507 15.4807 18.4392 15.96 18.5793C16.752 18.8131 17.4728 18.7802 18.0423 18.7009C18.6763 18.6133 19.9977 17.9602 20.2735 17.2453C20.5482 16.5305 20.5482 15.9176 20.4659 15.7898C20.3836 15.6621 20.1634 15.5859 19.8319 15.4324H19.833ZM13.8022 23.0581H13.7978C11.8284 23.0585 9.89515 22.5682 8.20072 21.6387L7.8003 21.4182L3.63811 22.4298L4.74929 18.672L4.4879 18.2868C3.38689 16.6637 2.80422 14.7853 2.80723 12.8685C2.80945 7.25452 7.74134 2.6871 13.8067 2.6871C16.7431 2.6871 19.5038 3.7481 21.5793 5.6723C22.6031 6.61646 23.4145 7.73924 23.9666 8.97569C24.5188 10.2121 24.8007 11.5377 24.7961 12.8757C24.7938 18.4897 19.862 23.0581 13.8022 23.0581V23.0581ZM23.1588 4.2106C21.9333 3.06816 20.4751 2.16231 18.8688 1.54556C17.2625 0.928809 15.54 0.613416 13.8011 0.617657C6.51115 0.617657 0.575978 6.11318 0.573753 12.8675C0.572641 15.0265 1.18106 17.1341 2.33896 18.9913L0.462524 25.3398L7.47439 23.636C9.41409 24.6147 11.5877 25.1275 13.7966 25.1276H13.8022C21.0921 25.1276 27.0273 19.6321 27.0295 12.8767C27.0349 11.267 26.6956 9.67224 26.0312 8.18472C25.3668 6.6972 24.3905 5.34645 23.1588 4.2106" fill="#F2F2F2"/>
</svg>
