<svg width="159" height="150" viewBox="0 0 159 150" fill="none" xmlns="http://www.w3.org/2000/svg">
<path d="M159 68.8H140.3L151.1 18.9H97.9L101.9 0H88.7L84.7 18.9H33.5L22.7 68.8H2.8L0 81.7H19.9L9.5 129.7H61.2L56.8 149.9H70L74.3 129.7H80.4C93.6 129.7 106.5 125.2 116.7 116.9C126.9 108.6 134.1 97 136.9 84.2L137.4 81.7H156.1L159 68.8V68.8ZM108.6 106.9C100.6 113.3 90.6 116.8 80.4 116.8H77.1L80.8 99.6H67.5L63.8 116.8H25.5L33.1 81.7H50.1L52.9 68.8H35.9L43.9 31.8H81.9L78 50.3H91.2L95.1 31.8H135L127 68.8H108.9L106.1 81.7H124.2C122.1 91.6 116.5 100.5 108.6 106.9V106.9Z" fill="#F1BA60"/>
</svg>
