<svg width="180" height="137" viewBox="0 0 180 137" fill="none" xmlns="http://www.w3.org/2000/svg">
<g clip-path="url(#clip0_4_2)">
<path d="M93.084 104.109V95.646C99.029 95.095 103.36 93.349 106.033 90.316C108.614 87.283 109.904 83.975 109.904 80.483C109.904 72.304 104.19 67.158 93.084 65.136V47.4C98.199 47.768 101.701 50.157 103.176 54.66L108.798 52.822C106.217 46.297 100.872 42.622 93.084 41.886V35.186H87.554V41.886C77.37 43.632 72.301 48.411 72.301 56.406C72.301 59.439 73.223 62.195 75.158 64.677C77.093 67.158 81.241 69.18 87.554 70.742V89.948C81.702 89.489 77.739 86.272 75.527 80.483L69.905 82.689C72.486 90.316 78.384 94.635 87.554 95.646V104.109H93.084ZM93.084 71.937C100.181 72.948 103.775 75.98 103.775 81.035C103.775 83.424 102.853 85.446 100.918 87.192C99.075 88.938 96.402 89.857 93.084 89.949V71.937ZM78.153 55.763C78.153 53.466 78.982 51.536 80.734 49.974C82.393 48.412 84.697 47.585 87.554 47.401V64.402C81.287 63.206 78.153 60.358 78.153 55.763Z" fill="white"/>
<path d="M51.012 55.679C49.722 54.668 47.878 54.76 46.865 56.047L26.035 80.859C23.454 66.156 26.311 51.085 34.238 37.944C43.454 22.597 58.569 11.478 75.711 7.43401C98.199 2.19601 121.7 9.64001 137.092 27.008C138.198 28.203 140.041 28.295 141.239 27.284C142.437 26.181 142.529 24.343 141.515 23.149C124.741 4.21801 99.028 -3.95999 74.42 1.82901C55.803 6.14801 39.306 18.278 29.26 35.003C21.887 47.317 18.569 61.101 19.491 74.886L5.391 53.842C4.469 52.464 2.626 52.096 1.336 53.015C-0.0460038 53.934 -0.415003 55.68 0.506997 57.058L21.981 89.038C22.534 89.773 23.363 90.325 24.285 90.325H24.469C24.8884 90.3234 25.3026 90.2324 25.684 90.0581C26.0655 89.8837 26.4053 89.6301 26.681 89.314L51.473 59.815C52.486 58.62 52.302 56.782 51.012 55.679Z" fill="white"/>
<path d="M179.487 87.559L158.197 55.855C158.197 55.763 158.105 55.763 158.105 55.671L158.013 55.579C157.921 55.395 157.737 55.395 157.644 55.211C157.552 55.119 157.46 54.935 157.275 54.843C156.814 54.475 156.261 54.2 155.708 54.2C154.786 54.2 153.865 54.568 153.312 55.211L128.612 84.802C127.598 85.997 127.69 87.926 128.981 88.937C130.179 89.948 132.022 89.856 133.128 88.569L153.68 64.125C155.8 93.348 134.418 122.387 104.373 129.463C83.268 134.425 61.425 128.268 45.942 113.014C44.836 111.911 42.901 111.911 41.795 113.014C40.689 114.117 40.689 116.047 41.795 117.149C54.882 130.014 72.117 136.999 89.904 136.999C95.157 136.999 100.411 136.356 105.664 135.161C136.815 127.901 159.395 98.862 159.672 68.536L174.695 90.867C174.959 91.2611 175.315 91.5844 175.733 91.8088C176.15 92.0332 176.617 92.1517 177.091 92.154C177.644 92.154 178.197 91.97 178.75 91.695C180.04 90.683 180.409 88.845 179.487 87.559Z" fill="white"/>
</g>
<defs>
<clipPath id="clip0_4_2">
<rect width="180" height="137" fill="white"/>
</clipPath>
</defs>
</svg>
